# xmcd
#
# Track frame offsets:
#	225
#	18074
#	37490
#	51180
#	67179
#	83400
#	95252
#	108112
#	123450
#	140256
#	156121
#
# Disc length: 2260 seconds
#
# Revision: 1
# Processed by: cddbd v1.5.2PL0 Copyright (c) Steve Scherf et al.
# Submitted via: audiograbber 1.83.01
#
DISCID=8a08d10b
DTITLE=the psychobilly cadillacs (canada) - Nobody Never Told Me (1995)
DYEAR=2016
DGENRE=Neo rockabilly
TTITLE0=Nobody Never Told Me 
TTITLE1=She Only Half Cried 
TTITLE2=Have Mercy 
TTITLE3=Fool To Believe
TTITLE4=Hokey Tonk 
TTITLE5=All Out of Love 
TTITLE6=Wastin' My Last Quarter 
TTITLE7=Just Got Paid 
TTITLE8=Room to Breathe 
TTITLE9=Good Ol' Boys 
TTITLE10=Diana, Please Don't Come Home 
EXTD=
EXTT0=
EXTT1=
EXTT2=
EXTT3=
EXTT4=
EXTT5=
EXTT6=
EXTT7=
EXTT8=
EXTT9=
EXTT10=
PLAYORDER=
